<svg xmlns="http://www.w3.org/2000/svg" width="30" height="29" fill="none" viewBox="0 0 30 29">
  <g clip-path="url(#a)">
    <path fill="#B8221D" d="M12.532 22.238a.74.74 0 1 1 0 1.482.74.74 0 0 1 0-1.482Zm4.448 0a.74.74 0 1 1 0 1.482.74.74 0 0 1 0-1.482Zm-5.19-10.377a1.483 1.483 0 1 1 0 2.965 1.483 1.483 0 0 1 0-2.966Zm5.931 0a1.483 1.483 0 1 1 0 2.965 1.483 1.483 0 0 1 0-2.966Zm5.302 10.377c0 3.277-3.36 5.93-8.267 5.93s-8.443-2.653-8.443-5.93c0-1.334.215-2.564 1.327-3.558a8.881 8.881 0 0 1-1.78-5.337l.179-1.809a4.943 4.943 0 0 1-2.55 0C1.976 11.12-.307 9.414.034 8.228.375 7.042 3.207 6.82 4.72 7.265c.875.252 1.809.89 2.357 1.571l.845-1.2c-.89-1.632-.578-6.153 3.87-7.636l-.133.208c-.416.652-1.483 2.713-.356 4.936a8.924 8.924 0 0 1 6.908 0c1.127-2.223.06-4.284-.355-4.936L17.72 0c4.448 1.483 4.76 6.004 3.87 7.635l.845 1.201c.548-.682 1.482-1.32 2.357-1.571 1.512-.445 4.344-.223 4.685.963.34 1.186-1.942 2.891-3.455 3.306a4.958 4.958 0 0 1-2.55 0l.178 1.809a8.881 8.881 0 0 1-1.779 5.337c1.112.994 1.151 2.224 1.151 3.558Zm-8.09-4.011c-4.636 0-6.876 1.308-6.876 4.011 0 2.53 2.791 4.274 6.594 4.274 4.22 0 6.628-1.396 6.628-4.535 0-2.791-1.71-3.75-6.346-3.75Zm-.177-1.919c1.66 0 4.142.311 5.477.83.86-1.023 1.358-2.312 1.358-3.795 0-1.573-.595-4.208-1.707-5.32S16.329 6.28 14.756 6.28s-4.225 1.445-5.337 2.557c-1.113 1.112-1.78 2.934-1.78 4.507 0 1.483.57 3.076 1.43 4.099 1.335-.519 4.026-1.134 5.687-1.134Z"/>
  </g>
  <defs>
    <clipPath id="a">
      <path fill="#fff" d="M0 0h30v28.605H0z"/>
    </clipPath>
  </defs>
</svg>
