<svg xmlns="http://www.w3.org/2000/svg" width="31" height="31" fill="none" viewBox="0 0 31 31">
  <path fill="#B8221D" d="m12.556 9.062-2.038-1.245c.71-1.33 1.743-2.332 2.964-2.776-.188-.572-.67-.987-1.26-.987V1.192c2.065 0 3.742 1.66 3.983 3.792 1.26.415 2.347 1.445 3.085 2.833l-2.039 1.245-2.347-1.431-2.348 1.43Zm7.713 3.576v17.17S9.54 26.946 9.54 14.069v-1.43c0-1.045.536-1.96 1.34-2.461l1.678 1.03 2.347-1.431 2.347 1.43 1.677-1.03a2.888 2.888 0 0 1 1.341 2.461Zm-1.893 2.075v-1.645h-6.944v1.645c.228 5.737 3.787 11.223 6.944 12.233V14.713Z"/>
</svg>
