<svg xmlns="http://www.w3.org/2000/svg" width="43" height="41" fill="none" viewBox="0 0 43 41">
  <g clip-path="url(#a)">
    <path fill="#9B4033" d="M17.963 31.875a1.062 1.062 0 1 1 0 2.124 1.062 1.062 0 0 1 0-2.124Zm6.375 0a1.062 1.062 0 1 1 0 2.124 1.062 1.062 0 0 1 0-2.124ZM16.9 17a2.125 2.125 0 1 1 0 4.25 2.125 2.125 0 0 1 0-4.25Zm8.5 0a2.125 2.125 0 1 1 0 4.25 2.125 2.125 0 0 1 0-4.25ZM33 31.875c0 4.696-4.816 8.5-11.85 8.5-7.033 0-12.1-3.804-12.1-8.5 0-1.913.307-3.676 1.9-5.1a12.73 12.73 0 0 1-2.55-7.65l.255-2.593c-1.147.32-2.528.32-3.655 0-2.167-.595-5.44-3.038-4.95-4.738.488-1.7 4.547-2.019 6.714-1.382 1.254.362 2.593 1.275 3.379 2.253l1.211-1.721C10.08 8.606 10.525 2.125 16.9 0l-.19.297c-.596.935-2.126 3.89-.51 7.077a12.792 12.792 0 0 1 9.902 0c1.615-3.188.085-6.141-.51-7.076L25.4 0c6.375 2.125 6.822 8.606 5.547 10.944l1.21 1.721c.787-.977 2.126-1.891 3.38-2.252 2.167-.638 6.226-.32 6.715 1.38.488 1.7-2.784 4.145-4.952 4.74-1.126.318-2.507.318-3.655 0l.255 2.592a12.73 12.73 0 0 1-2.55 7.65c1.594 1.424 1.65 3.188 1.65 5.1Zm-11.596-5.75c-6.646 0-9.855 1.875-9.855 5.75C11.55 35.5 15.55 38 21 38c6.05 0 9.5-2 9.5-6.5 0-4-2.45-5.375-9.096-5.375Zm-.254-2.75c2.38 0 5.938.446 7.85 1.19 1.233-1.466 1.947-3.315 1.947-5.44 0-2.254-.853-6.03-2.447-7.625C26.906 9.906 23.405 9 21.15 9c-2.254 0-6.056 2.07-7.65 3.665-1.594 1.594-2.55 4.206-2.55 6.46 0 2.125.818 4.409 2.05 5.875 1.912-.744 5.77-1.625 8.15-1.625Z"/>
  </g>
  <defs>
    <clipPath id="a">
      <path fill="#fff" d="M0 0h43v41H0z"/>
    </clipPath>
  </defs>
</svg>
