<svg xmlns="http://www.w3.org/2000/svg" width="30" height="30" fill="none" viewBox="0 0 30 30">
  <path fill="#69391E" d="M21.15 15.058a1.133 1.133 0 1 0 0-2.266 1.133 1.133 0 0 0 0 2.266Z"/>
  <path fill="#69391E" d="M29.592 15.525a.834.834 0 0 0-.7-.367 2.85 2.85 0 0 1-1.742-.933 14.46 14.46 0 0 1-2.192-3.15l2.4-3.75a1.576 1.576 0 0 0 .142-1.492A1.475 1.475 0 0 0 26.392 5a8.433 8.433 0 0 0-4.492.625 10.6 10.6 0 0 0-2.267 1.358 14.117 14.117 0 0 0-4.3-1.158c-5.908-.575-11.308 3.258-12 8.342a2.134 2.134 0 0 1-1.15-1.275 1.509 1.509 0 0 1 .117-1.167.99.99 0 0 1 .358-.358.9.9 0 0 0-.933-1.542 2.758 2.758 0 0 0-.967 1.008A3.333 3.333 0 0 0 .483 13.4 3.966 3.966 0 0 0 2.5 15.792l.767.383a14.65 14.65 0 0 0 1.516 5.833l.142.317a19.166 19.166 0 0 0 2.742 4.242.835.835 0 0 0 .625.283h3.766a.834.834 0 0 0 .767-1.15l-.325-.75.983.108c1.109.11 2.225.11 3.334 0 .308.5.641 1 1.008 1.492a.835.835 0 0 0 .667.342h3.616a.834.834 0 0 0 .767-1.159 17.553 17.553 0 0 1-.392-1c-.15-.441-.266-.833-.358-1.208a10.984 10.984 0 0 0 2.508-1.858c.83.1 1.67.1 2.5 0a.834.834 0 0 0 .65-.517l1.884-4.842a.833.833 0 0 0-.075-.783Zm-3.15 4.533a9.463 9.463 0 0 1-1.959-.091 6.831 6.831 0 0 1-2.108-.725.833.833 0 0 0-.775 1.475c.348.182.707.344 1.075.483a6.671 6.671 0 0 1-1.5.967l-.883.4s.408 1.825.683 2.633h-1.983c-.2-.283-1.209-1.967-1.209-1.967l-.558.075a15.44 15.44 0 0 1-3.542.1c-.55-.05-1.466-.166-2.183-.291l-1.292-.225s.525 2.025.625 2.283h-2.15a17.144 17.144 0 0 1-2.216-3.508l-.15-.325A12.183 12.183 0 0 1 5 14.567c.45-4.325 5.1-7.592 10.158-7.117a12.89 12.89 0 0 1 4.234 1.233l.516.242.417-.392A8.575 8.575 0 0 1 22.5 7.117a6.875 6.875 0 0 1 3.333-.542l-2.816 4.408.208.417a17.639 17.639 0 0 0 2.758 4.033c.512.5 1.118.894 1.784 1.159l-1.325 3.466Z"/>
</svg>
