<svg xmlns="http://www.w3.org/2000/svg" width="30" height="30" fill="none" viewBox="0 0 30 30">
  <path fill="#69391E" d="M26 10.625a3.125 3.125 0 0 1-3.125 3.125 3.11 3.11 0 0 1-2.925-2.05c-.55.488-1.275.8-2.075.8-.7 0-1.35-.238-1.875-.625a3.129 3.129 0 0 1-1.875.625 3.13 3.13 0 0 1-2.075-.8 3.11 3.11 0 0 1-2.925 2.05A3.125 3.125 0 0 1 6 10.625 3.119 3.119 0 0 1 8.625 7.55a1.875 1.875 0 0 1 2.45-2.412c.213-.8.938-1.388 1.8-1.388.313 0 .625.087.85.212.4-.837 1.263-1.462 2.275-1.462 1.013 0 1.875.625 2.275 1.462a1.82 1.82 0 0 1 .85-.212c.863 0 1.588.588 1.8 1.388a1.875 1.875 0 0 1 2.45 2.412A3.119 3.119 0 0 1 26 10.625ZM13.5 15a1.25 1.25 0 1 0 0 2.5 1.25 1.25 0 0 0 0-2.5Zm5 0a1.25 1.25 0 1 0 0 2.5 1.25 1.25 0 0 0 0-2.5Zm8.5-1.125c-.8 1.013-1.962 1.491-3.35 1.491-.562 0-1.387-.528-1.9-.74-.012 3.187-.275 7.074-2 9.062-.65.737-1.5 1.687-2.5 1.812l-1.25.17-1-.17c-1-.125-2.1-1.063-2.75-1.813-1.737-2-2.112-5.874-2.125-9.062-.5.2-1.687.741-2.25.741-1.387 0-1.825-.478-2.625-1.49C4.138 14.987 3.5 15 3.5 15s1.25 2.5 3.75 2.5c.45 0 .8-.05 1.1-.113C8.775 22.163 10.475 27.5 16 27.5s7.225-5.337 7.65-10.113c.3.063.65.113 1.1.113 2.5 0 3.75-2.5 3.75-2.5s-.387-.012-1.5-1.125Z"/>
</svg>
