<svg xmlns="http://www.w3.org/2000/svg" width="31" height="31" fill="none" viewBox="0 0 31 31">
  <path fill="#69391E" d="M12.556 8.197 10.518 6.9c.71-1.386 1.743-2.429 2.964-2.89-.188-.597-.67-1.03-1.26-1.03V0c2.065 0 3.742 1.729 3.983 3.95 1.26.432 2.347 1.505 3.085 2.95l-2.039 1.297-2.347-1.49-2.348 1.49Zm7.713 3.726v17.885S9.54 26.827 9.54 13.413v-1.49c0-1.088.536-2.042 1.34-2.563l1.678 1.073 2.347-1.49 2.347 1.49 1.677-1.073c.805.521 1.341 1.475 1.341 2.563Zm-1.893 2.161V12.37h-6.944v1.714c.228 5.977 3.787 11.691 6.944 12.743V14.084Z"/>
</svg>
