<svg xmlns="http://www.w3.org/2000/svg" width="30" height="30" fill="none" viewBox="0 0 30 30">
  <path stroke="#69391E" stroke-linecap="round" stroke-linejoin="round" stroke-width="1.5" d="m19.342 15.329 1.875-1.875m-10.625 3.125 2.5-2.5m13.75 11.25s-12.292-4.361-15.855-7.925a5.609 5.609 0 0 1 3.956-9.576 5.604 5.604 0 0 1 3.965 1.64c3.575 3.576 7.934 15.86 7.934 15.86ZM3.092 9.079s1.425-2.5 3.75-2.5c1.758 0 3.75 2.5 3.75 2.5s-1.425 2.5-3.75 2.5-3.75-2.5-3.75-2.5Z"/>
  <path stroke="#69391E" stroke-linecap="round" stroke-linejoin="round" stroke-width="1.5" d="M10.592 1.579s2.5 1.425 2.5 3.75-2.5 3.75-2.5 3.75-2.5-1.971-2.5-3.75c0-2.325 2.5-3.75 2.5-3.75Z"/>
</svg>
