<svg width="39" height="40" viewBox="0 0 39 40" fill="none" xmlns="http://www.w3.org/2000/svg">
<path d="M8.96875 37.4688C8.34375 37.4688 7.8125 37.25 7.375 36.8125C6.9375 36.375 6.71875 35.8437 6.71875 35.2187C6.71875 34.5937 6.9375 34.0625 7.375 33.625C7.8125 33.1875 8.34375 32.9688 8.96875 32.9688C9.59375 32.9688 10.125 33.1875 10.5625 33.625C11 34.0625 11.2188 34.5937 11.2188 35.2187C11.2188 35.8437 11 36.375 10.5625 36.8125C10.125 37.25 9.59375 37.4688 8.96875 37.4688V37.4688ZM21.4687 37.4688C20.8437 37.4688 20.3125 37.25 19.875 36.8125C19.4375 36.375 19.2188 35.8437 19.2188 35.2187C19.2188 34.5937 19.4375 34.0625 19.875 33.625C20.3125 33.1875 20.8437 32.9688 21.4687 32.9688C22.0937 32.9688 22.625 33.1875 23.0625 33.625C23.5 34.0625 23.7188 34.5937 23.7188 35.2187C23.7188 35.8437 23.5 36.375 23.0625 36.8125C22.625 37.25 22.0937 37.4688 21.4687 37.4688ZM7.34375 16.8437L10.7812 23.9688H19.7813L23.6875 16.8437H7.34375ZM6.40625 14.9687H24.8125C25.2917 14.9687 25.6563 15.1875 25.9063 15.625C26.1563 16.0625 26.1563 16.5 25.9063 16.9375L21.6875 24.5312C21.4583 24.9271 21.1615 25.2448 20.7969 25.4844C20.4323 25.724 20.0313 25.8438 19.5938 25.8438H10.125L8.375 29.0937H23.7188V30.9687H8.65625C7.78125 30.9687 7.15104 30.6771 6.76562 30.0938C6.38021 29.5104 6.38542 28.8542 6.78125 28.125L8.78125 24.4375L4.03125 14.375H1.59375V12.5H5.25L6.40625 14.9687ZM10.7812 23.9688H19.7813H10.7812Z" fill="#B8221D"/>
<path d="M37.594 18V16.146H32.266C35.488 13.716 37.522 11.736 37.522 9.522C37.522 7.128 35.488 5.814 33.166 5.814C31.492 5.814 29.8 6.462 28.738 7.74L29.962 9.126C30.718 8.262 31.798 7.686 33.202 7.686C34.3 7.686 35.38 8.262 35.38 9.522C35.38 11.25 33.562 12.816 28.9 16.344V18H37.594Z" fill="#B8221D"/>
</svg>
