<svg xmlns="http://www.w3.org/2000/svg" width="30" height="30" fill="none" viewBox="0 0 30 30">
  <path fill="#DB2D27" d="M8.969 27.469a2.17 2.17 0 0 1-1.594-.657 2.17 2.17 0 0 1-.656-1.593c0-.625.218-1.157.656-1.594a2.17 2.17 0 0 1 1.594-.656 2.17 2.17 0 0 1 1.594.656c.437.438.656.969.656 1.594a2.17 2.17 0 0 1-.656 1.593 2.17 2.17 0 0 1-1.594.657Zm12.5 0a2.17 2.17 0 0 1-1.594-.657 2.17 2.17 0 0 1-.656-1.593c0-.625.218-1.157.656-1.594a2.17 2.17 0 0 1 1.594-.656 2.17 2.17 0 0 1 1.593.656c.438.438.657.969.657 1.594a2.17 2.17 0 0 1-.657 1.593 2.17 2.17 0 0 1-1.593.657ZM7.344 6.844l3.437 7.125h9l3.907-7.125H7.343Zm-.938-1.875h18.407c.479 0 .843.218 1.093.656.25.438.25.875 0 1.313l-4.218 7.593c-.23.396-.526.714-.891.953-.365.24-.766.36-1.203.36h-9.469l-1.75 3.25h15.344v1.875H8.656c-.875 0-1.505-.292-1.89-.875-.386-.584-.38-1.24.015-1.969l2-3.688-4.75-10.062H1.594V2.5H5.25l1.156 2.469Zm4.375 9h9-9Z"/>
</svg>
