<svg xmlns="http://www.w3.org/2000/svg" width="22" height="22" fill="none" viewBox="0 0 22 22">
  <path fill="#F0615C" d="m20.186 21.47-7.853-7.842a6.582 6.582 0 0 1-2.09 1.207 7.401 7.401 0 0 1-2.539.433c-2.15 0-3.971-.746-5.464-2.237C.747 11.541 0 9.741 0 7.634s.747-3.907 2.24-5.398C3.733.746 5.544 0 7.674 0c2.11 0 3.907.745 5.39 2.236 1.483 1.491 2.225 3.29 2.225 5.398 0 .855-.14 1.68-.418 2.475a7.566 7.566 0 0 1-1.254 2.236l7.883 7.813-1.314 1.312ZM7.674 13.478c1.613 0 2.986-.571 4.121-1.714 1.135-1.143 1.702-2.52 1.702-4.13 0-1.61-.567-2.987-1.702-4.13-1.135-1.143-2.508-1.715-4.12-1.715-1.633 0-3.022.572-4.166 1.715-1.145 1.143-1.717 2.52-1.717 4.13 0 1.61.572 2.987 1.717 4.13 1.144 1.143 2.533 1.714 4.165 1.714Z"/>
</svg>
