<svg xmlns="http://www.w3.org/2000/svg" width="40" height="40" fill="none" viewBox="0 0 40 40">
  <path fill="#B8221D" d="M20 19.458c-1.611 0-2.938-.52-3.98-1.562-1.04-1.042-1.562-2.368-1.562-3.98 0-1.61.521-2.93 1.563-3.958C17.062 8.931 18.389 8.417 20 8.417c1.611 0 2.938.514 3.98 1.541 1.04 1.028 1.562 2.348 1.562 3.959 0 1.61-.521 2.937-1.563 3.979-1.041 1.041-2.368 1.562-3.979 1.562ZM7.5 32.167V29c0-.889.236-1.667.708-2.333a4.712 4.712 0 0 1 1.834-1.542c1.777-.778 3.479-1.361 5.104-1.75A20.795 20.795 0 0 1 20 22.792c1.611 0 3.23.201 4.854.604 1.625.403 3.313.993 5.063 1.77a4.715 4.715 0 0 1 1.875 1.521c.472.653.708 1.424.708 2.313v3.167h-25Zm1.875-1.875h21.25V29c0-.417-.139-.826-.417-1.23a2.833 2.833 0 0 0-1.083-.937c-1.639-.805-3.188-1.368-4.646-1.687a20.875 20.875 0 0 0-4.479-.48c-1.528 0-3.035.16-4.52.48-1.487.32-3.036.882-4.647 1.687a2.926 2.926 0 0 0-1.041.938c-.278.403-.417.812-.417 1.229v1.292ZM20 17.583c1.028 0 1.889-.347 2.583-1.041.695-.695 1.042-1.57 1.042-2.625 0-1.028-.347-1.89-1.042-2.584-.694-.694-1.555-1.041-2.583-1.041-1.028 0-1.889.347-2.583 1.041-.695.695-1.042 1.556-1.042 2.584 0 1.055.347 1.93 1.042 2.625.694.694 1.555 1.041 2.583 1.041Z"/>
</svg>
