<svg width="28" height="27" viewBox="0 0 28 27" fill="none" xmlns="http://www.w3.org/2000/svg">
<path d="M7.51915 20.1294H8.4092L18.2442 10.2945L17.3319 9.38216L7.51915 19.2171V20.1294ZM20.4025 9.56017L18.0662 7.24606L19.0007 6.31151C19.1935 6.10384 19.4309 6 19.7127 6C19.9946 6 20.2319 6.10384 20.4248 6.31151L21.3371 7.20156C21.5299 7.3944 21.6226 7.63174 21.6152 7.91359C21.6078 8.19544 21.5076 8.4402 21.3148 8.64787L20.4025 9.56017ZM19.6905 10.2722L8.80971 21.1307H6.49561V18.8166L17.3541 7.95809L19.6905 10.2722ZM17.7991 9.82718L17.3319 9.38216L18.2442 10.2945L17.7991 9.82718Z" fill="black"/>
</svg>
