<svg xmlns="http://www.w3.org/2000/svg" width="18" height="18" fill="none" viewBox="0 0 18 18">
  <path fill="#DB2D27" d="M9 13.167a.665.665 0 0 0 .49-.198.665.665 0 0 0 .198-.49.665.665 0 0 0-.198-.49.665.665 0 0 0-.49-.197.665.665 0 0 0-.49.198.665.665 0 0 0-.197.49c0 .194.065.357.197.489a.665.665 0 0 0 .49.198Zm-.562-3.188h1.25V4.71h-1.25v5.27ZM9 17.333a8.063 8.063 0 0 1-3.23-.656 8.452 8.452 0 0 1-2.655-1.792 8.453 8.453 0 0 1-1.792-2.656 8.115 8.115 0 0 1-.656-3.25c0-1.139.218-2.215.656-3.229a8.328 8.328 0 0 1 1.792-2.646A8.542 8.542 0 0 1 5.77 1.323 8.115 8.115 0 0 1 9.02.667c1.139 0 2.215.218 3.229.656a8.415 8.415 0 0 1 2.646 1.781 8.416 8.416 0 0 1 1.781 2.646A8.115 8.115 0 0 1 17.333 9a8.063 8.063 0 0 1-.656 3.23 8.543 8.543 0 0 1-1.781 2.655 8.327 8.327 0 0 1-2.646 1.792 8.115 8.115 0 0 1-3.25.656Zm.02-1.25c1.96 0 3.626-.69 5-2.073 1.376-1.381 2.063-3.059 2.063-5.03 0-1.96-.687-3.626-2.062-5C12.646 2.603 10.972 1.916 9 1.916c-1.958 0-3.628.687-5.01 2.062C2.608 5.354 1.917 7.028 1.917 9c0 1.958.69 3.629 2.073 5.01 1.382 1.382 3.059 2.073 5.03 2.073Z"/>
</svg>
