<svg xmlns="http://www.w3.org/2000/svg" width="18" height="18" fill="none" viewBox="0 0 18 18">
  <path fill="#303030" d="m12.014 10.722-.753-.743c.316-.962.115-1.754-.603-2.377-.718-.622-1.493-.792-2.325-.51l-.754-.742c.2-.113.42-.198.657-.255.236-.056.491-.084.764-.084.933 0 1.726.321 2.38.965a3.17 3.17 0 0 1 .979 2.345c0 .269-.032.523-.097.764-.065.24-.147.453-.248.636Zm2.756 2.673-.667-.636a9.807 9.807 0 0 0 1.733-1.603 6.843 6.843 0 0 0 1.13-1.835 8.534 8.534 0 0 0-3.186-3.64 8.43 8.43 0 0 0-4.63-1.347c-.545 0-1.101.05-1.668.149a7.875 7.875 0 0 0-1.41.36l-.754-.742c.474-.212 1.055-.386 1.744-.52a10.558 10.558 0 0 1 2.024-.202c1.924 0 3.7.538 5.33 1.613A9.467 9.467 0 0 1 18 9.321a9.933 9.933 0 0 1-1.324 2.239 9.707 9.707 0 0 1-1.906 1.835ZM16.062 18l-3.488-3.395c-.445.198-.98.357-1.604.477a10.4 10.4 0 0 1-1.97.18c-1.98 0-3.782-.537-5.404-1.612C1.974 12.575.776 11.132 0 9.32a9.164 9.164 0 0 1 1.26-2.142 10.974 10.974 0 0 1 1.884-1.889L.495 2.7l.69-.7 15.523 15.279-.646.721ZM3.811 5.968c-.545.368-1.087.87-1.626 1.507-.538.636-.929 1.252-1.173 1.846a8.587 8.587 0 0 0 3.251 3.64c1.436.897 3.058 1.347 4.866 1.347.531 0 1.059-.043 1.583-.128s.9-.184 1.13-.297l-1.529-1.506c-.158.07-.362.13-.613.18-.251.05-.485.074-.7.074-.933 0-1.726-.318-2.38-.955-.652-.636-.979-1.421-.979-2.355 0-.212.025-.439.076-.68.05-.24.11-.445.183-.614L3.81 5.968Z"/>
</svg>
