<svg width="18" height="18" viewBox="0 0 18 18" fill="none" xmlns="http://www.w3.org/2000/svg">
<path d="M4.71458 16.1582C4.43125 16.1582 4.18924 16.0579 3.98854 15.8572C3.78785 15.6565 3.6875 15.4145 3.6875 15.1311V8.04779C3.6875 7.76445 3.78785 7.52244 3.98854 7.32174C4.18924 7.12105 4.43125 7.0207 4.71458 7.0207H5.93646V5.40924C5.93646 4.55924 6.23455 3.83615 6.83073 3.23997C7.42691 2.64379 8.15 2.3457 9 2.3457C9.85 2.3457 10.5731 2.64379 11.1693 3.23997C11.7655 3.83615 12.0635 4.55924 12.0635 5.40924V7.0207H13.2854C13.5687 7.0207 13.8108 7.12105 14.0115 7.32174C14.2122 7.52244 14.3125 7.76445 14.3125 8.04779V15.1311C14.3125 15.4145 14.2122 15.6565 14.0115 15.8572C13.8108 16.0579 13.5687 16.1582 13.2854 16.1582H4.71458ZM4.71458 15.3613H13.2854C13.3562 15.3613 13.4123 15.3407 13.4536 15.2993C13.495 15.258 13.5156 15.202 13.5156 15.1311V8.04779C13.5156 7.98876 13.495 7.93858 13.4536 7.89727C13.4123 7.85595 13.3562 7.83529 13.2854 7.83529H4.71458C4.64375 7.83529 4.58767 7.85595 4.54635 7.89727C4.50503 7.93858 4.48438 7.98876 4.48438 8.04779V15.1311C4.48438 15.202 4.50503 15.258 4.54635 15.2993C4.58767 15.3407 4.64375 15.3613 4.71458 15.3613ZM6.75104 7.0207H11.249V5.40924C11.249 4.78355 11.0306 4.24935 10.5938 3.80664C10.1569 3.36393 9.62569 3.14258 9 3.14258C8.37431 3.14258 7.84306 3.36393 7.40625 3.80664C6.96944 4.24935 6.75104 4.78355 6.75104 5.40924V7.0207Z" fill="#4F5A7E"/>
</svg>
