<svg xmlns="http://www.w3.org/2000/svg" width="18" height="18" fill="none" viewBox="0 0 18 18">
  <path fill="#303030" d="M9 12.343c.933 0 1.726-.329 2.38-.986.652-.657.979-1.443.979-2.357 0-.929-.33-1.718-.99-2.368A3.258 3.258 0 0 0 9 5.657a3.23 3.23 0 0 0-2.38.986C5.969 7.3 5.642 8.086 5.642 9c0 .929.33 1.718.99 2.368.66.65 1.45.975 2.369.975Zm0-.964c-.675 0-1.242-.233-1.701-.697A2.304 2.304 0 0 1 6.61 9c0-.671.233-1.236.7-1.693A2.327 2.327 0 0 1 9 6.621c.675 0 1.242.233 1.701.697.46.464.689 1.025.689 1.682 0 .671-.233 1.236-.7 1.693a2.327 2.327 0 0 1-1.69.686ZM9 15c-1.98 0-3.775-.55-5.383-1.65A10.212 10.212 0 0 1 0 9c.804-1.8 2.01-3.25 3.617-4.35C5.225 3.55 7.02 3 9 3s3.775.55 5.383 1.65A10.212 10.212 0 0 1 18 9c-.804 1.8-2.01 3.25-3.617 4.35C12.775 14.45 10.98 15 9 15Zm0-.964a8.551 8.551 0 0 0 4.704-1.372A8.913 8.913 0 0 0 16.966 9a8.913 8.913 0 0 0-3.262-3.664A8.551 8.551 0 0 0 9 3.964a8.551 8.551 0 0 0-4.705 1.372A9.067 9.067 0 0 0 1.012 9a9.067 9.067 0 0 0 3.283 3.664A8.551 8.551 0 0 0 9 14.036Z"/>
</svg>
