<svg xmlns="http://www.w3.org/2000/svg" width="36" height="36" fill="none" viewBox="0 0 36 36">
  <path fill="#69391E" d="M22.74 3a1.5 1.5 0 0 0-.99.195l-18 10.5a.957.957 0 0 0-.195.15l-.15.12c-.102.118-.188.25-.255.39A1.26 1.26 0 0 0 3 15v15a1.5 1.5 0 0 0 1.5 1.5h27A1.5 1.5 0 0 0 33 30V15A12.12 12.12 0 0 0 22.74 3Zm0 3.075a9.105 9.105 0 0 1 7.155 7.425H10.05l12.69-7.425ZM30 28.5H6v-12h24v12Z"/>
  <path fill="#69391E" d="M9.75 27a2.25 2.25 0 1 0 0-4.5 2.25 2.25 0 0 0 0 4.5Zm7.5-4.5a2.25 2.25 0 1 0 0-4.5 2.25 2.25 0 0 0 0 4.5ZM25.5 27a3 3 0 1 0 0-6 3 3 0 0 0 0 6Z"/>
</svg>
