<svg xmlns="http://www.w3.org/2000/svg" width="44" height="44" fill="none" viewBox="0 0 44 44">
  <path fill="#69391E" d="M31.02 22.086a1.662 1.662 0 1 0 0-3.325 1.662 1.662 0 0 0 0 3.325Z"/>
  <path fill="#69391E" d="M43.401 22.77a1.222 1.222 0 0 0-1.027-.538 4.18 4.18 0 0 1-2.554-1.369 21.202 21.202 0 0 1-3.214-4.62l3.52-5.5a2.31 2.31 0 0 0 .207-2.187 2.163 2.163 0 0 0-1.625-1.223 12.369 12.369 0 0 0-6.588.917 15.547 15.547 0 0 0-3.324 1.992c-2-.896-4.128-1.47-6.307-1.699-8.666-.843-16.586 4.78-17.6 12.235a3.13 3.13 0 0 1-1.687-1.87 2.212 2.212 0 0 1 .171-1.711c.127-.218.308-.4.526-.526A1.321 1.321 0 1 0 2.53 14.41a4.045 4.045 0 0 0-1.418 1.479 4.889 4.889 0 0 0-.403 3.764 5.817 5.817 0 0 0 2.958 3.508l1.124.562a21.47 21.47 0 0 0 2.225 8.556l.207.464a28.111 28.111 0 0 0 4.021 6.221 1.224 1.224 0 0 0 .917.416h5.525a1.222 1.222 0 0 0 1.124-1.687l-.477-1.1 1.443.16c1.625.16 3.263.16 4.888 0 .453.733.942 1.466 1.48 2.187a1.223 1.223 0 0 0 .977.501h5.305a1.222 1.222 0 0 0 1.124-1.699 25.639 25.639 0 0 1-.574-1.466 20.955 20.955 0 0 1-.526-1.773 16.11 16.11 0 0 0 3.679-2.725c1.218.147 2.449.147 3.667 0a1.224 1.224 0 0 0 .953-.758l2.762-7.101a1.223 1.223 0 0 0-.11-1.149Zm-4.62 6.649c-.96.055-1.922.01-2.872-.135a10.02 10.02 0 0 1-3.092-1.063 1.222 1.222 0 0 0-1.137 2.163c.51.268 1.037.505 1.577.71a9.779 9.779 0 0 1-2.2 1.417l-1.296.587s.599 2.676 1.002 3.862h-2.909c-.293-.416-1.772-2.884-1.772-2.884l-.819.11c-1.72.248-3.463.297-5.194.146a45.173 45.173 0 0 1-3.202-.428l-1.895-.33s.77 2.97.917 3.35h-3.153a25.143 25.143 0 0 1-3.252-5.146l-.22-.477a17.869 17.869 0 0 1-1.93-9.937c.66-6.343 7.48-11.134 14.898-10.437 2.158.242 4.259.854 6.21 1.809l.757.354.611-.574A12.574 12.574 0 0 1 33 10.438a10.083 10.083 0 0 1 4.889-.795l-4.131 6.466.305.611a25.867 25.867 0 0 0 4.046 5.916 7.932 7.932 0 0 0 2.615 1.698l-1.943 5.085Z"/>
</svg>
