<svg xmlns="http://www.w3.org/2000/svg" width="44" height="44" fill="none" viewBox="0 0 44 44">
  <path fill="#69391E" d="M38.133 15.583a4.583 4.583 0 0 1-4.583 4.584 4.561 4.561 0 0 1-4.29-3.007 4.586 4.586 0 0 1-3.043 1.173 4.63 4.63 0 0 1-2.75-.916 4.59 4.59 0 0 1-2.75.916 4.586 4.586 0 0 1-3.044-1.173 4.561 4.561 0 0 1-4.29 3.007A4.583 4.583 0 0 1 8.8 15.583a4.574 4.574 0 0 1 3.85-4.51 2.963 2.963 0 0 1-.183-.99 2.75 2.75 0 0 1 2.75-2.75 2.7 2.7 0 0 1 1.026.202 2.734 2.734 0 0 1 2.64-2.035c.459 0 .917.128 1.247.312.587-1.229 1.852-2.145 3.337-2.145s2.75.916 3.336 2.145c.33-.184.789-.312 1.247-.312 1.265 0 2.328.862 2.64 2.035.312-.128.66-.202 1.027-.202a2.75 2.75 0 0 1 2.75 2.75c0 .349-.074.679-.184.99a4.574 4.574 0 0 1 3.85 4.51ZM19.8 22a1.834 1.834 0 1 0 0 3.667 1.834 1.834 0 0 0 0-3.667Zm7.333 0a1.833 1.833 0 1 0 0 3.667 1.833 1.833 0 0 0 0-3.667ZM39.6 20.35c-1.173 1.485-2.878 2.187-4.913 2.187-.825 0-2.035-.775-2.787-1.087-.018 4.675-.403 10.377-2.933 13.292-.954 1.081-2.2 2.475-3.667 2.658l-1.833.248L22 37.4c-1.467-.183-3.08-1.558-4.033-2.658-2.549-2.934-3.099-8.617-3.117-13.292-.733.293-2.475 1.087-3.3 1.087-2.035 0-2.677-.702-3.85-2.187C6.068 21.982 5.133 22 5.133 22s1.834 3.667 5.5 3.667a7.72 7.72 0 0 0 1.614-.165c.623 7.003 3.116 14.831 11.22 14.831 8.103 0 10.596-7.828 11.22-14.831.44.091.953.165 1.613.165 3.667 0 5.5-3.667 5.5-3.667s-.568-.018-2.2-1.65Z"/>
</svg>
