<svg xmlns="http://www.w3.org/2000/svg" width="44" height="44" fill="none" viewBox="0 0 44 44">
  <path fill="#69391E" d="m6.713 15.26-2.786-1.595c.971-1.705 2.383-2.988 4.051-3.557-.256-.733-.916-1.265-1.723-1.265V5.176c2.823 0 5.115 2.127 5.445 4.859 1.723.531 3.208 1.851 4.217 3.63L13.13 15.26l-3.208-1.833-3.209 1.833Zm10.542 4.583v22S2.588 38.176 2.588 21.676v-1.833c0-1.338.734-2.512 1.834-3.153l2.291 1.32 3.209-1.834 3.208 1.834 2.292-1.32c1.1.641 1.833 1.815 1.833 3.153Zm-2.588 2.659v-2.109H5.176v2.108c.312 7.352 5.177 14.381 9.49 15.675V22.501Z"/>
</svg>
