<svg xmlns="http://www.w3.org/2000/svg" width="52" height="88" fill="none" viewBox="0 0 52 88">
  <path fill="#B8221D" d="M7.513 6.507h17.094v2.607h-7.133V27h-2.945V9.114H7.513V6.507Zm36.802 23.415h6.87v8.672c-2.519 1.093-5.019 1.64-7.5 1.64-3.388 0-6.098-.986-8.13-2.959-2.02-1.982-3.032-4.423-3.032-7.324 0-3.056 1.05-5.6 3.15-7.632 2.1-2.03 4.731-3.046 7.895-3.046 1.153 0 2.247.126 3.282.38 1.035.245 2.343.699 3.925 1.363v2.988c-2.441-1.416-4.863-2.124-7.265-2.124-2.237 0-4.121.762-5.654 2.285-1.534 1.524-2.3 3.394-2.3 5.61 0 2.325.766 4.224 2.3 5.699 1.533 1.474 3.505 2.212 5.917 2.212 1.172 0 2.574-.269 4.204-.806l.279-.088v-4.263h-3.94v-2.607Zm-16 22.614h2.915l-8.276 20.552h-.63l-6.694-16.64-6.753 16.64h-.63L0 52.536h2.944l5.64 14.107 5.669-14.107h2.783l5.698 14.107 5.581-14.107Zm10.941 13h11.601v2.608h-8.672v6.24h8.38v2.622h-8.38v6.357h8.95v2.608h-11.88V65.536Z"/>
</svg>
