<svg xmlns="http://www.w3.org/2000/svg" width="41" height="70" fill="none" viewBox="0 0 41 70">
  <path fill="#F0615C" d="M7.342 4.338h11.396v1.738h-4.756V18H12.02V6.076H7.342V4.338Zm24.535 15.943h4.58v5.782c-1.68.729-3.346 1.093-5 1.093-2.26 0-4.066-.657-5.42-1.972-1.348-1.322-2.021-2.95-2.021-4.883 0-2.038.7-3.734 2.1-5.088 1.399-1.354 3.154-2.031 5.263-2.031.768 0 1.497.084 2.187.253.69.163 1.563.466 2.618.909v1.992c-1.628-.944-3.243-1.416-4.844-1.416-1.491 0-2.748.508-3.77 1.523-1.022 1.016-1.533 2.263-1.533 3.74 0 1.55.511 2.816 1.533 3.8 1.022.982 2.338 1.474 3.946 1.474.78 0 1.715-.179 2.802-.537l.186-.059V22.02h-2.627v-1.74Zm-11 12.076h1.943L17.303 46.06h-.42L12.42 34.965 7.918 46.059h-.42L2 32.357h1.963l3.76 9.405 3.779-9.405h1.855l3.8 9.405 3.72-9.405Zm7.627 8h7.734v1.739h-5.781v4.16h5.586v1.748h-5.586v4.238h5.967v1.739h-7.92V40.356Z"/>
</svg>
