<svg xmlns="http://www.w3.org/2000/svg" width="35" height="35" fill="none" viewBox="0 0 35 35">
  <g clip-path="url(#a)">
    <path fill="#fff" d="M17.5 3.151c4.676 0 5.23.02 7.068.103 1.71.075 2.632.362 3.247.601a5.412 5.412 0 0 1 2.01 1.306 5.384 5.384 0 0 1 1.306 2.01c.24.615.526 1.545.601 3.247.082 1.846.103 2.4.103 7.068 0 4.676-.02 5.23-.103 7.069-.075 1.709-.362 2.631-.601 3.247a5.413 5.413 0 0 1-1.306 2.01 5.382 5.382 0 0 1-2.01 1.305c-.615.24-1.545.527-3.247.602-1.845.082-2.4.102-7.068.102-4.676 0-5.23-.02-7.068-.102-1.71-.075-2.632-.363-3.247-.602a5.413 5.413 0 0 1-2.01-1.306 5.383 5.383 0 0 1-1.306-2.01c-.24-.614-.526-1.544-.601-3.246-.082-1.846-.103-2.4-.103-7.069 0-4.676.02-5.23.103-7.068.075-1.709.362-2.632.601-3.247a5.412 5.412 0 0 1 1.306-2.01 5.383 5.383 0 0 1 2.01-1.306c.615-.239 1.544-.526 3.247-.601 1.838-.082 2.392-.103 7.068-.103ZM17.5 0c-4.751 0-5.346.02-7.212.103-1.86.082-3.138.382-4.245.813-1.155.451-2.133 1.046-3.104 2.023-.977.971-1.572 1.949-2.023 3.097C.486 7.15.185 8.422.103 10.281.02 12.154 0 12.75 0 17.5s.02 5.346.103 7.212c.082 1.86.382 3.138.813 4.245.451 1.155 1.046 2.133 2.023 3.103a8.554 8.554 0 0 0 3.097 2.017c1.114.43 2.386.732 4.245.814 1.867.082 2.461.102 7.212.102 4.751 0 5.346-.02 7.212-.102 1.86-.082 3.138-.383 4.245-.814a8.554 8.554 0 0 0 3.097-2.017 8.555 8.555 0 0 0 2.017-3.096c.43-1.114.73-2.386.813-4.245.082-1.867.102-2.461.102-7.212 0-4.751-.02-5.346-.102-7.212-.082-1.86-.383-3.138-.814-4.245a8.198 8.198 0 0 0-2.002-3.11A8.555 8.555 0 0 0 28.964.922C27.85.493 26.578.19 24.719.109 22.846.021 22.25 0 17.5 0Z"/>
    <path fill="#fff" d="M17.5 8.51c-4.963 0-8.99 4.027-8.99 8.99s4.027 8.99 8.99 8.99 8.99-4.027 8.99-8.99-4.027-8.99-8.99-8.99Zm0 14.821a5.832 5.832 0 0 1 0-11.662 5.832 5.832 0 0 1 0 11.662ZM28.943 8.155a2.1 2.1 0 1 1-4.198 0 2.1 2.1 0 0 1 4.198 0Z"/>
  </g>
  <defs>
    <clipPath id="a">
      <path fill="#fff" d="M0 0h35v35H0z"/>
    </clipPath>
  </defs>
</svg>
