<svg xmlns="http://www.w3.org/2000/svg" width="35" height="35" fill="none" viewBox="0 0 35 35">
  <g clip-path="url(#a)">
    <path fill="#fff" d="M17.5 0C7.834 0 0 7.834 0 17.5c0 7.417 4.614 13.747 11.122 16.297-.15-1.388-.294-3.507.062-5.018.32-1.367 2.05-8.695 2.05-8.695s-.526-1.046-.526-2.598c0-2.433 1.408-4.252 3.165-4.252 1.49 0 2.215 1.121 2.215 2.468 0 1.504-.957 3.746-1.45 5.824-.41 1.744.876 3.165 2.591 3.165 3.11 0 5.503-3.28 5.503-8.011 0-4.19-3.007-7.123-7.307-7.123-4.977 0-7.903 3.732-7.903 7.594 0 1.504.582 3.118 1.306 3.993.144.17.164.328.123.499-.13.553-.43 1.743-.485 1.982-.075.321-.253.39-.588.232-2.188-1.018-3.555-4.21-3.555-6.78 0-5.524 4.013-10.59 11.56-10.59 6.07 0 10.787 4.328 10.787 10.11 0 6.03-3.8 10.883-9.078 10.883-1.77 0-3.439-.922-4.013-2.01 0 0-.875 3.344-1.087 4.164-.396 1.517-1.463 3.425-2.174 4.587 1.641.506 3.377.779 5.182.779C27.166 35 35 27.166 35 17.5S27.166 0 17.5 0Z"/>
  </g>
  <defs>
    <clipPath id="a">
      <path fill="#fff" d="M0 0h35v35H0z"/>
    </clipPath>
  </defs>
</svg>
