<svg xmlns="http://www.w3.org/2000/svg" width="25" height="25" fill="none" viewBox="0 0 25 25">
  <path fill="#9B4033" d="M15.792 2.083a1.042 1.042 0 0 0-.688.136L2.604 9.51a.665.665 0 0 0-.135.105l-.104.083c-.071.082-.13.173-.177.27a.875.875 0 0 0-.105.449v10.416a1.042 1.042 0 0 0 1.042 1.042h18.75a1.041 1.041 0 0 0 1.042-1.042V10.417a8.417 8.417 0 0 0-7.125-8.334Zm0 2.136a6.323 6.323 0 0 1 4.969 5.156H6.979l8.813-5.156Zm5.041 15.573H4.167v-8.334h16.666v8.334Z"/>
  <path fill="#9B4033" d="M6.77 18.75a1.563 1.563 0 1 0 0-3.125 1.563 1.563 0 0 0 0 3.125Zm5.21-3.125a1.563 1.563 0 1 0-.001-3.125 1.563 1.563 0 0 0 0 3.125Zm5.728 3.125a2.083 2.083 0 1 0 0-4.167 2.083 2.083 0 0 0 0 4.167Z"/>
</svg>
