<svg xmlns="http://www.w3.org/2000/svg" width="31" height="31" fill="none" viewBox="0 0 31 31">
  <g clip-path="url(#a)">
    <path fill="#9B4033" d="m12.556 10.254-2.038-1.245c.71-1.33 1.743-2.332 2.964-2.776-.188-.572-.67-.987-1.26-.987V2.385c2.065 0 3.742 1.66 3.983 3.791 1.26.415 2.347 1.445 3.085 2.833l-2.039 1.245-2.347-1.43-2.348 1.43Zm7.713 3.577V31S9.54 28.139 9.54 15.262V13.83c0-1.045.536-1.96 1.34-2.461l1.678 1.03 2.347-1.43 2.347 1.43 1.677-1.03a2.888 2.888 0 0 1 1.341 2.46Zm-1.893 2.074V14.26h-6.944v1.645c.228 5.738 3.787 11.224 6.944 12.234V15.905Z"/>
  </g>
  <defs>
    <clipPath id="a">
      <path fill="#fff" d="M0 0h31v31H0z"/>
    </clipPath>
  </defs>
</svg>
