<svg xmlns="http://www.w3.org/2000/svg" width="30" height="30" fill="none" viewBox="0 0 30 30">
  <path fill="#9B4033" d="M3.75 12.188V10.78a4.219 4.219 0 0 1 4.94-4.157 6.567 6.567 0 0 1 12.62 0 4.219 4.219 0 0 1 4.94 4.157v1.406A11.25 11.25 0 0 1 15.937 23.4v2.85h-1.874V23.4A11.25 11.25 0 0 1 3.75 12.188Zm8.411-.94h5.678a4.213 4.213 0 0 1 1.725-3.889 4.689 4.689 0 0 0-9.128 0 4.213 4.213 0 0 1 1.725 3.891v-.002Zm-2.135 0a2.11 2.11 0 1 0-4.116 0h4.116Zm9.948 0h4.114a2.11 2.11 0 1 0-4.116 0h.002ZM15 21.563a9.375 9.375 0 0 0 9.328-8.44H5.672A9.375 9.375 0 0 0 15 21.563Zm-3.75 4.689h7.5a.938.938 0 0 1 0 1.875h-7.5a.938.938 0 0 1 0-1.875Z"/>
</svg>
