<svg xmlns="http://www.w3.org/2000/svg" width="40" height="40" fill="none" viewBox="0 0 40 40">
  <path fill="#B8221D" d="M5 16.25v-1.875a5.625 5.625 0 0 1 6.588-5.543 8.755 8.755 0 0 1 16.825 0A5.625 5.625 0 0 1 35 14.375v1.875A15 15 0 0 1 21.25 31.2V35h-2.5v-3.8A15 15 0 0 1 5 16.25Zm11.215-1.252h7.57a5.618 5.618 0 0 1 2.3-5.186 6.252 6.252 0 0 0-12.17 0 5.619 5.619 0 0 1 2.3 5.188v-.002Zm-2.848 0a2.813 2.813 0 1 0-5.487 0h5.487Zm13.265 0h5.485a2.813 2.813 0 1 0-5.487 0h.003ZM20 28.75a12.5 12.5 0 0 0 12.438-11.253H7.561A12.5 12.5 0 0 0 20 28.75Zm-5 6.252h10a1.25 1.25 0 0 1 0 2.5H15a1.25 1.25 0 0 1 0-2.5Z"/>
</svg>
