<svg xmlns="http://www.w3.org/2000/svg" width="43" height="43" fill="none" viewBox="0 0 43 43">
  <path stroke="#B8221D" stroke-linecap="round" stroke-linejoin="round" stroke-width="2.5" d="m27.724 21.971 2.687-2.687m-15.229 4.48 3.583-3.584m19.709 16.125s-17.62-6.251-22.726-11.36a8.04 8.04 0 0 1 5.67-13.725 8.033 8.033 0 0 1 5.684 2.35c5.124 5.126 11.372 22.735 11.372 22.735ZM4.432 13.013S6.475 9.43 9.807 9.43c2.52 0 5.375 3.583 5.375 3.583s-2.043 3.583-5.375 3.583-5.375-3.583-5.375-3.583Z"/>
  <path stroke="#B8221D" stroke-linecap="round" stroke-linejoin="round" stroke-width="2.5" d="M15.182 2.263s3.583 2.043 3.583 5.375c0 3.333-3.583 5.375-3.583 5.375s-3.583-2.825-3.583-5.375c0-3.332 3.583-5.375 3.583-5.375Z"/>
</svg>
